<svg xmlns="http://www.w3.org/2000/svg" viewBox="0 0 64 64" fill="none">
  <defs>
    <linearGradient id="g" x1="0%" y1="0%" x2="100%" y2="100%">
      <stop offset="0%" stop-color="#f5e6a8"/>
      <stop offset="50%" stop-color="#d4af37"/>
      <stop offset="100%" stop-color="#6b5a2e"/>
    </linearGradient>
    <linearGradient id="b" x1="0%" y1="50%" x2="100%" y2="50%">
      <stop offset="0%" stop-color="#064e3b"/>
      <stop offset="100%" stop-color="#34d399"/>
    </linearGradient>
    <linearGradient id="r" x1="100%" y1="50%" x2="0%" y2="50%">
      <stop offset="0%" stop-color="#7f1d1d"/>
      <stop offset="100%" stop-color="#fb7185"/>
    </linearGradient>
  </defs>
  <rect width="64" height="64" rx="14" fill="#08080c"/>
  <circle cx="32" cy="32" r="28" stroke="url(#g)" stroke-width="1.5" fill="none"/>
  <path d="M10 38c8-14 22-22 38-20 6 10 4 24-6 32-8 6-18 8-26 4 2-6-2-12-6-16z" fill="url(#b)"/>
  <path d="M54 38c-8-14-22-22-38-20-6 10-4 24 6 32 8 6 18 8 26 4-2-6 2-12 6-16z" fill="url(#r)"/>
  <path d="M24 22h16v4H30v14h-4V26h-6v-4z" fill="url(#g)"/>
  <path d="M32 18l2 4 4 2-4 2-2 4-2-4-4-2 4-2 2-4z" fill="#f0d060"/>
</svg>
